<?xml version="1.0" encoding="utf-8"?>
<!-- Generator: Adobe Illustrator 16.0.0, SVG Export Plug-In . SVG Version: 6.00 Build 0)  -->
<!DOCTYPE svg PUBLIC "-//W3C//DTD SVG 1.1//EN" "http://www.w3.org/Graphics/SVG/1.1/DTD/svg11.dtd">
<svg version="1.1" id="Layer_1" xmlns="http://www.w3.org/2000/svg" xmlns:xlink="http://www.w3.org/1999/xlink" x="0px" y="0px"
	 width="200px" height="200px" viewBox="0 0 200 200" enable-background="new 0 0 200 200" xml:space="preserve">
<g>
	<g>
		<path fill-rule="evenodd" clip-rule="evenodd" d="M30.568,10.797C16.278,75.686,58.185,119.921,60.979,123.053
			c8.833,0.782,13.269,4.62,16.101,6.261c23.554-16.995,35.182-8.944,43.381-5.366c22.063,14.907,16.101,36.225,15.206,39.803
			c13.416,4.323,38.908,1.342,38.908,1.342s0,0,8.499-1.342C85.628,94.973,30.568,10.797,30.568,10.797z M163.397,139.152
			c0.587-1.882,0.445-3.131,0.445-3.131s-2.979-14.312-17.89-12.074c0.3-4.325,1.902-11.854-5.365-19.679
			c-3.021-2.684-7.716-7.827-21.469-4.472c0.672-3.468,2.796-11.629-4.92-20.574c-4.36-3.242-9.726-7.714-20.124-4.919
			c0.783-4.025,2.124-14.982-4.025-20.573c-2.684-2.572-8.497-8.273-20.573-6.261c0.335-3.69,0.895-7.604-3.131-12.523
			c-2.571-2.572-5.216-4.949-12.075-4.919C54.271,30.028,97.902,88.473,163.397,139.152z M102.348,125.288
			c-10.822,0-20.229,6.056-25.021,14.962c-4.006-6.559-11.23-10.937-19.477-10.937c-12.597,0-22.809,10.212-22.809,22.81
			c0,12.596,10.212,22.808,22.809,22.808c7.675,0,14.46-3.796,18.594-9.608c4.445,9.881,14.367,16.765,25.904,16.765
			c15.686,0,28.401-12.715,28.401-28.398C130.749,138.004,118.033,125.288,102.348,125.288z M46.892,139.152
			c1.853,0,3.354,1.502,3.354,3.354c0,1.854-1.501,3.354-3.354,3.354c-1.852,0-3.354-1.5-3.354-3.354
			C43.538,140.654,45.04,139.152,46.892,139.152z M50.937,165.614c-2.161-0.225-10.864-5.33-9.188-14.387
			c0,0,14.424,2.571,25.493,4.025C67.018,157.266,64.428,168.186,50.937,165.614z M64.111,149.886c-2.224,0-4.025-1.802-4.025-4.025
			c0-2.223,1.801-4.023,4.025-4.023c2.223,0,4.025,1.801,4.025,4.023C68.136,148.084,66.333,149.886,64.111,149.886z
			 M97.207,139.152c2.715,0,4.919,2.203,4.919,4.92s-2.204,4.919-4.919,4.919c-2.718,0-4.919-2.202-4.919-4.919
			S94.488,139.152,97.207,139.152z M109.264,172.023c-2.664,0.447-15.816,0.939-18.319-15.429h31.306
			C122.25,156.595,122.773,168.854,109.264,172.023z M118.225,149.886c-2.468,0-4.471-2.003-4.471-4.473s2.003-4.472,4.471-4.472
			c2.471,0,4.474,2.002,4.474,4.472S120.695,149.886,118.225,149.886z"/>
	</g>
</g>
</svg>
